# xmcd CD database file
#
# Track frame offsets:
#	150
#	26310
#	55340
#	80825
#	98665
#	119905
#	145917
#	170880
#	188770
#
# Disc length: 2875 seconds
#
# Revision: 1
# Processed by: cddbd v1.4PL0 Copyright (c) Steve Scherf et al.
# Submitted via: CDex 1.50beta10
#
DISCID=7f0b3909
DTITLE=Jimmy 'T99' Nelson - Rockin' And Shoutin' The Blues
DYEAR=1999
DGENRE=Blues
TTITLE0=House Of The Blues
TTITLE1=Hurt Three Ways
TTITLE2=How Long Blues
TTITLE3=I'll Miss Show Business
TTITLE4=New Shack Lover
TTITLE5=Don't Let The Sun Catch You Crying
TTITLE6=When You're Smiling
TTITLE7=Boogie Woogie Country Girl
TTITLE8=Sweet Mr. Cleanhead
EXTD=Bullseye Blues and Jazz YEAR: 1999
EXTT0=
EXTT1=
EXTT2=
EXTT3=
EXTT4=
EXTT5=
EXTT6=
EXTT7=
EXTT8=
PLAYORDER=
